<svg width="183" height="38" viewBox="0 0 183 38" fill="none" xmlns="http://www.w3.org/2000/svg">
<path d="M6.94241 21.2381L10.1682 7.67815C10.1682 7.67815 10.5657 6.25635 11.9559 6.25635C13.346 6.25635 13.6928 7.67815 13.6928 7.67815L15.2267 13.9124L16.8396 7.67815C16.8396 7.67815 17.1611 6.25635 18.6499 6.25635C20.1387 6.25635 20.3643 7.67815 20.3643 7.67815L21.7741 13.582L23.1389 7.67815C23.1389 7.67815 23.7592 5.79259 25.5216 6.36743C27.2839 6.94226 26.7369 8.66398 26.7369 8.66398L23.4885 22.2711C23.4885 22.2711 23.0656 23.6374 21.7967 23.6374C20.5278 23.6374 19.9864 22.2711 19.9864 22.2711L18.5568 16.1257L16.9693 22.2767C16.9693 22.2767 16.5971 23.5596 15.2267 23.5596C14.8409 23.558 14.4663 23.4316 14.1606 23.1998C13.8549 22.968 13.6351 22.6436 13.5349 22.2767L12.0066 16.1257L10.4924 22.2767C10.4924 22.2767 10.0187 23.9706 8.28177 23.5346C6.54483 23.0986 6.94241 21.2381 6.94241 21.2381Z" fill="#003F3A"/>
<path d="M34.9366 23.585V6.38721H38.6023V20.4498H47.2588V23.585H34.9366Z" fill="#212121"/>
<path d="M48.1444 23.5852V10.8306H51.5647V23.5852H48.1444Z" fill="#212121"/>
<path d="M60.3422 15.1901H63.5256V18.8168C63.5256 21.5105 61.9494 23.9209 58.2922 23.9209C54.5025 23.9209 53.0024 21.5382 53.0024 18.7918V7.40625H56.3946V10.8302H63.5482V13.2157H56.3946V18.453C56.3946 20.0609 56.9726 20.9939 58.3684 20.9939C59.7641 20.9939 60.3676 20.0859 60.3676 18.4947L60.3422 15.1901Z" fill="#212121"/>
<path d="M72.1117 15.1901H75.2867V18.8168C75.2867 21.5105 73.7077 23.9209 70.0505 23.9209C66.2636 23.9209 64.7635 21.5382 64.7635 18.7918V7.40625H68.1303V10.8302H75.2867V13.2157H68.1388V18.453C68.1388 20.0609 68.7196 20.9939 70.1126 20.9939C71.5055 20.9939 72.1117 20.0859 72.1117 18.4947V15.1901Z" fill="#212121"/>
<path d="M76.533 23.5849V6.17334H79.9533V23.5849H76.533Z" fill="#212121"/>
<path d="M84.4256 18.0917C84.53 20.0078 85.6353 21.2519 87.3187 21.2519C88.424 21.2519 89.3968 20.6965 89.6337 19.8273H93.1583C92.3688 22.4432 90.2399 23.9206 87.4766 23.9206C83.1624 23.9206 80.9912 21.5879 80.9912 16.9782C80.9912 13.0404 83.2808 10.4995 87.251 10.4995C91.2212 10.4995 93.3331 13.0515 93.3331 18.0917H84.4256ZM89.8169 15.9674C89.7662 14.0762 88.5029 13.1682 87.1608 13.1682C85.8186 13.1682 84.6625 14.204 84.53 15.9674H89.8169Z" fill="#212121"/>
<path d="M114.128 23.585L111.419 12.391L108.658 23.585H105.238L100.292 6.38721H104.186L107.054 17.5228L109.473 6.38721H113.313L115.97 17.5284L118.812 6.38721H122.548L117.656 23.6044L114.128 23.585Z" fill="#003F3A"/>
<path d="M120.997 17.2173C120.997 13.174 123.549 10.5054 127.652 10.5054C131.704 10.4998 134.219 13.1435 134.219 17.2173C134.219 21.2911 131.681 23.9209 127.652 23.9209C123.47 23.9209 120.997 21.1745 120.997 17.2173ZM130.785 17.2173C130.785 14.6264 129.73 13.3545 127.652 13.3545C125.574 13.3545 124.522 14.6264 124.522 17.2173C124.522 19.8082 125.574 21.1051 127.652 21.1051C129.73 21.1051 130.785 19.8027 130.785 17.2173Z" fill="#212121"/>
<path d="M135.347 23.5848V10.8302H138.556V12.3603C139.683 10.6496 141.003 10.4941 142.396 10.4941H142.844V13.9459C142.531 13.8938 142.214 13.8678 141.897 13.8682C139.793 13.8682 138.767 14.904 138.767 16.9506V23.5848H135.347Z" fill="#212121"/>
<path d="M151.569 23.5849L148.727 17.8588L147.069 19.5417V23.5849H143.623V6.17334H147.069V15.6817L151.332 10.8303H155.514L151.174 15.5262L155.404 23.5794L151.569 23.5849Z" fill="#212121"/>
<path d="M157.987 18.0917C158.094 20.0078 159.199 21.2519 160.883 21.2519C161.985 21.2519 162.961 20.6965 163.198 19.8273H166.722C165.933 22.4432 163.801 23.9206 161.04 23.9206C156.723 23.9206 154.555 21.5879 154.555 16.9782C154.555 13.0404 156.845 10.4995 160.818 10.4995C164.791 10.4995 166.905 13.0515 166.905 18.0917H157.987ZM163.381 15.9674C163.327 14.0762 162.064 13.1682 160.725 13.1682C159.385 13.1682 158.224 14.204 158.094 15.9674H163.381Z" fill="#212121"/>
<path d="M167.96 23.5848V10.8302H171.158V12.3603C172.285 10.6496 173.605 10.4941 174.998 10.4941H175.446V13.9459C175.133 13.8938 174.816 13.8678 174.499 13.8682C172.393 13.8682 171.369 14.904 171.369 16.9506V23.5848H167.96Z" fill="#212121"/>
<path d="M49.8245 10.097C50.1597 10.0997 50.4881 10.0043 50.7682 9.82292C51.0483 9.64152 51.2673 9.38227 51.3975 9.07807C51.5277 8.77387 51.5633 8.43843 51.4996 8.11431C51.4359 7.79019 51.2759 7.49201 51.0399 7.2576C50.8038 7.02319 50.5024 6.86312 50.1738 6.7977C49.8453 6.73227 49.5044 6.76445 49.1944 6.89014C48.8845 7.01583 48.6194 7.22937 48.4329 7.50366C48.2463 7.77796 48.1467 8.10064 48.1467 8.43077C48.1467 8.87027 48.323 9.29198 48.6373 9.60406C48.9515 9.91613 49.3782 10.0933 49.8245 10.097Z" fill="#212121"/>
<path d="M41.3571 29.547L40.077 33.4681H39.4763C39.403 33.4681 39.3523 33.4209 39.3269 33.3237L38.481 30.7689C38.4584 30.705 38.4415 30.6412 38.4246 30.5801L38.3823 30.3885C38.3597 30.5204 38.3267 30.6504 38.2836 30.7772L37.4377 33.3237C37.4328 33.3642 37.4127 33.4014 37.3814 33.4281C37.3502 33.4548 37.3099 33.4691 37.2685 33.4681H36.6876L35.4047 29.547H36.0081C36.0611 29.5452 36.1134 29.5598 36.1575 29.5887C36.1962 29.6149 36.225 29.653 36.2393 29.697L36.9555 32.1046C36.9781 32.2018 37.0006 32.299 37.0175 32.3823C37.0345 32.4656 37.0542 32.5684 37.0683 32.66L37.1444 32.3823C37.1726 32.2907 37.2008 32.1935 37.229 32.1046L38.0242 29.6803C38.0382 29.6384 38.0647 29.6016 38.1003 29.5748C38.1386 29.5472 38.1854 29.5335 38.2328 29.5359H38.5656C38.6165 29.5335 38.6669 29.5471 38.7094 29.5748C38.745 29.6016 38.7715 29.6384 38.7855 29.6803L39.5609 32.1046C39.5891 32.2018 39.6173 32.299 39.6427 32.3823C39.6681 32.4656 39.6935 32.5712 39.7132 32.66C39.7301 32.5656 39.747 32.474 39.7696 32.3823C39.7922 32.2907 39.8119 32.1907 39.8401 32.1046L40.5676 29.697C40.5808 29.6524 40.6098 29.614 40.6494 29.5887C40.6896 29.5604 40.7381 29.5458 40.7875 29.547H41.3571Z" fill="#212121"/>
<path d="M45.2168 32.9071C45.123 33.0147 45.0137 33.1082 44.8926 33.1848C44.7693 33.2624 44.6379 33.3267 44.5006 33.3765C44.361 33.4239 44.2176 33.4601 44.072 33.4848C43.9274 33.5067 43.7813 33.5178 43.635 33.5181C43.3738 33.5212 43.1144 33.475 42.8708 33.382C42.6414 33.2929 42.4344 33.1555 42.2646 32.9794C42.0853 32.7914 41.9488 32.568 41.8642 32.324C41.7636 32.0346 41.715 31.7301 41.7204 31.4243C41.7189 31.1643 41.7628 30.906 41.8501 30.6606C41.9322 30.4332 42.0587 30.2238 42.2223 30.0441C42.3864 29.8669 42.5874 29.7267 42.8116 29.6331C43.0595 29.53 43.3265 29.4789 43.5955 29.4832C43.8246 29.4809 44.0521 29.5204 44.2666 29.5998C44.4668 29.6736 44.6478 29.7903 44.7967 29.9414C44.9524 30.1001 45.0725 30.2893 45.1492 30.4967C45.2376 30.736 45.2807 30.9892 45.2761 31.2437C45.2828 31.3235 45.2693 31.4037 45.2366 31.477C45.2205 31.4991 45.1986 31.5164 45.1733 31.5272C45.1479 31.5379 45.1201 31.5417 45.0928 31.5381H42.4817C42.4856 31.7455 42.5198 31.9512 42.5832 32.149C42.6346 32.3088 42.7191 32.4563 42.8313 32.5822C42.9357 32.6962 43.0649 32.7854 43.2092 32.8433C43.3661 32.9006 43.5325 32.9289 43.6998 32.9266C43.8495 32.9294 43.9988 32.9097 44.1425 32.8683C44.252 32.8353 44.3586 32.7935 44.4611 32.7433C44.5394 32.7055 44.6156 32.6638 44.6895 32.6183C44.7374 32.5841 44.7941 32.5639 44.8531 32.56C44.8811 32.5585 44.909 32.5641 44.9342 32.5762C44.9594 32.5884 44.981 32.6067 44.9969 32.6295L45.2168 32.9071ZM44.5852 31.0716C44.5877 30.931 44.5658 30.7911 44.5204 30.6578C44.484 30.5355 44.421 30.4225 44.3358 30.3265C44.2506 30.2306 44.1452 30.1542 44.0269 30.1024C43.8945 30.0493 43.7526 30.0228 43.6096 30.0247C43.4706 30.0176 43.3316 30.0386 43.2012 30.0863C43.0708 30.1341 42.9516 30.2076 42.8511 30.3024C42.6551 30.5128 42.5326 30.7794 42.5014 31.0632L44.5852 31.0716Z" fill="#212121"/>
<path d="M47.975 30.094C48.1832 29.8924 48.43 29.7336 48.7011 29.6268C48.9721 29.52 49.2621 29.4674 49.554 29.472C49.7607 29.4689 49.9659 29.5066 50.1574 29.583C50.3264 29.6509 50.4777 29.7553 50.6001 29.8885C50.7266 30.0247 50.8227 30.1855 50.8821 30.3606C50.9462 30.5561 50.9776 30.7605 50.9751 30.966V33.4652H50.634C50.574 33.4689 50.5143 33.4554 50.462 33.4264C50.4154 33.3929 50.3816 33.345 50.3661 33.2903L50.2843 32.9459C50.1888 33.0341 50.0881 33.1167 49.9826 33.1931C49.8848 33.2622 49.781 33.3226 49.6724 33.3736C49.5616 33.4243 49.4452 33.4625 49.3256 33.4874C49.191 33.514 49.054 33.527 48.9168 33.5263C48.7677 33.5272 48.6194 33.5056 48.4769 33.4625C48.345 33.4231 48.223 33.3568 48.1188 33.2681C48.0142 33.178 47.9313 33.066 47.8763 32.9404C47.815 32.7944 47.7852 32.6374 47.7889 32.4794C47.7897 32.3227 47.8336 32.1692 47.9158 32.0351C48.0178 31.8741 48.1607 31.742 48.3303 31.6519C48.5654 31.5221 48.8193 31.4284 49.0831 31.3742C49.4588 31.297 49.8413 31.2561 50.2251 31.252V30.9743C50.2427 30.7377 50.1748 30.5026 50.0334 30.3106C49.9621 30.2347 49.8744 30.1756 49.7768 30.1376C49.6792 30.0996 49.5741 30.0838 49.4694 30.0912C49.3268 30.0871 49.1846 30.1078 49.0493 30.1523C48.9507 30.1889 48.8562 30.2354 48.7673 30.2912L48.553 30.4272C48.498 30.4664 48.432 30.4878 48.3641 30.4883C48.3155 30.49 48.2678 30.4753 48.2287 30.4467C48.1907 30.4204 48.1589 30.3863 48.1357 30.3467L47.975 30.094ZM50.2307 31.7269C49.9653 31.7328 49.7005 31.7569 49.4384 31.7991C49.257 31.826 49.0799 31.8754 48.9111 31.9462C48.7996 31.9944 48.7025 32.0699 48.6292 32.1656C48.5688 32.2458 48.5371 32.3435 48.5389 32.4433C48.5354 32.53 48.5518 32.6164 48.5869 32.696C48.6164 32.7638 48.6618 32.8238 48.7194 32.871C48.7777 32.9164 48.8449 32.9494 48.9168 32.9682C48.9976 32.9899 49.0811 33.0002 49.1649 32.9987C49.2739 32.9996 49.3827 32.9885 49.4892 32.9654C49.5865 32.9434 49.6811 32.9108 49.7711 32.8682C49.8581 32.8236 49.9403 32.7706 50.0164 32.7099C50.099 32.6456 50.1763 32.575 50.2477 32.4988L50.2307 31.7269Z" fill="#212121"/>
<path d="M52.7121 30.2995C52.8203 30.0673 52.978 29.8609 53.1745 29.6941C53.3576 29.5456 53.5887 29.4667 53.8259 29.4719C53.9086 29.4718 53.991 29.4821 54.0712 29.5025C54.1426 29.5192 54.2104 29.5484 54.2714 29.5886L54.2206 30.1439C54.2171 30.1741 54.202 30.2019 54.1784 30.2215C54.1548 30.2411 54.1245 30.2511 54.0937 30.2495C54.0377 30.2466 53.9821 30.2392 53.9274 30.2273C53.8501 30.2136 53.7718 30.207 53.6933 30.2078C53.5822 30.206 53.4716 30.2229 53.3662 30.2578C53.273 30.2928 53.1877 30.3457 53.1153 30.4133C53.0362 30.4856 52.9696 30.57 52.9179 30.6632C52.8544 30.7713 52.8006 30.8847 52.7572 31.002V33.4569H51.993V29.5469H52.4301C52.4911 29.5397 52.5525 29.5556 52.6021 29.5913C52.6382 29.6361 52.6607 29.69 52.667 29.7468L52.7121 30.2995Z" fill="#212121"/>
<path d="M57.9821 32.9068C57.8888 33.015 57.7795 33.1086 57.6578 33.1845C57.5349 33.2626 57.4034 33.3269 57.2659 33.3761C57.1262 33.4236 56.9829 33.4598 56.8373 33.4844C56.6927 33.5064 56.5465 33.5176 56.4002 33.5177C56.1399 33.5206 55.8815 33.4744 55.6389 33.3817C55.4084 33.2929 55.2005 33.1555 55.0298 32.979C54.8514 32.7909 54.7159 32.5675 54.6322 32.3236C54.5317 32.0342 54.483 31.7297 54.4884 31.4239C54.4856 31.1638 54.5295 30.9053 54.6181 30.6602C54.6977 30.4337 54.8224 30.2251 54.9847 30.0465C55.1492 29.8697 55.3501 29.7296 55.574 29.6355C55.822 29.5326 56.0889 29.4816 56.3579 29.4856C56.587 29.4831 56.8146 29.5226 57.029 29.6022C57.2297 29.6766 57.4116 29.7932 57.5619 29.9438C57.7168 30.1027 57.8359 30.2919 57.9116 30.4992C58.0001 30.7384 58.0431 30.9916 58.0385 31.2462C58.0468 31.326 58.0332 31.4066 57.999 31.4794C57.9829 31.5015 57.961 31.5188 57.9357 31.5296C57.9103 31.5403 57.8825 31.5441 57.8552 31.5405H55.2441C55.2474 31.7482 55.2826 31.9542 55.3485 32.1515C55.3987 32.3117 55.4833 32.4595 55.5966 32.5847C55.6999 32.6998 55.8294 32.7892 55.9744 32.8457C56.1314 32.903 56.2977 32.9313 56.4651 32.929C56.6139 32.9318 56.7622 32.9121 56.9049 32.8707C57.0152 32.8372 57.1226 32.7954 57.2264 32.7457C57.3046 32.7079 57.3808 32.6662 57.4548 32.6208C57.5017 32.5867 57.5574 32.5665 57.6155 32.5625C57.6439 32.561 57.6722 32.5665 57.6979 32.5787C57.7235 32.5908 57.7456 32.6091 57.7621 32.6319L57.9821 32.9068ZM57.3533 31.0712C57.3544 30.9308 57.3325 30.791 57.2884 30.6575C57.2484 30.5362 57.1831 30.4246 57.0967 30.3298C57.0126 30.2364 56.9086 30.1625 56.7922 30.1132C56.6606 30.0603 56.5197 30.0339 56.3777 30.0354C56.2387 30.0282 56.0996 30.0491 55.9692 30.0968C55.8387 30.1446 55.7196 30.2182 55.6191 30.3131C55.4213 30.5226 55.2977 30.7895 55.2667 31.074L57.3533 31.0712Z" fill="#212121"/>
<path d="M61.6081 30.0439C61.773 29.8801 61.9634 29.7432 62.172 29.6384C62.3902 29.5327 62.631 29.4803 62.8741 29.4857C63.072 29.4824 63.2686 29.5183 63.4522 29.5912C63.6127 29.661 63.7553 29.7654 63.8695 29.8967C63.9842 30.0344 64.0704 30.1929 64.1233 30.3632C64.1817 30.5607 64.2102 30.7657 64.2079 30.9714V33.4706H63.4437V30.9714C63.4583 30.7373 63.3894 30.5055 63.2492 30.316C63.1735 30.2349 63.0801 30.1717 62.9761 30.1313C62.8721 30.0909 62.7601 30.0743 62.6486 30.0827C62.4565 30.0813 62.2672 30.1281 62.0987 30.2188C61.9202 30.3163 61.7593 30.442 61.6222 30.5909V33.4679H60.858V27.7695H61.6222L61.6081 30.0439Z" fill="#212121"/>
<path d="M66.9259 29.4857C67.1967 29.4812 67.4657 29.5284 67.7183 29.6246C67.947 29.7148 68.1529 29.8532 68.3217 30.03C68.4918 30.2143 68.6223 30.4306 68.7052 30.6659C68.88 31.208 68.88 31.7901 68.7052 32.3321C68.6236 32.568 68.493 32.7846 68.3217 32.968C68.1539 33.1452 67.9476 33.2829 67.7183 33.3707C67.2055 33.5596 66.6407 33.5596 66.128 33.3707C65.8978 33.2829 65.6906 33.1453 65.5217 32.968C65.3495 32.7848 65.2179 32.5682 65.1354 32.3321C64.9568 31.7906 64.9568 31.2074 65.1354 30.6659C65.2193 30.4305 65.3507 30.2141 65.5217 30.03C65.6913 29.8529 65.8982 29.7145 66.128 29.6246C66.3823 29.5279 66.6533 29.4807 66.9259 29.4857ZM66.9259 32.9347C67.0875 32.9468 67.2496 32.9188 67.3973 32.8533C67.5451 32.7878 67.6739 32.6869 67.7718 32.5598C67.9548 32.2378 68.0509 31.875 68.0509 31.506C68.0509 31.1369 67.9548 30.7741 67.7718 30.4521C67.6745 30.3241 67.546 30.2224 67.3981 30.1564C67.2502 30.0903 67.0878 30.0622 66.9259 30.0744C66.7643 30.0642 66.6026 30.0933 66.455 30.1591C66.3075 30.225 66.1787 30.3256 66.08 30.4521C65.897 30.7741 65.8009 31.1369 65.8009 31.506C65.8009 31.875 65.897 32.2378 66.08 32.5598C66.1794 32.6854 66.3083 32.7852 66.4558 32.8506C66.6032 32.9159 66.7646 32.9448 66.9259 32.9347Z" fill="#212121"/>
<path d="M69.6869 33.4677V29.5466H70.1465C70.1929 29.5424 70.2392 29.5555 70.2762 29.5832C70.3133 29.611 70.3384 29.6514 70.3467 29.6966L70.4003 30.0714C70.539 29.9061 70.7037 29.7636 70.8881 29.6494C71.0775 29.5367 71.2957 29.4799 71.5169 29.4855C71.751 29.474 71.9807 29.5504 72.1598 29.6993C72.3338 29.8549 72.4591 30.0563 72.5207 30.2797C72.5984 30.0947 72.7193 29.9304 72.8737 29.8001C73.028 29.6698 73.2114 29.5773 73.4089 29.5299C73.5354 29.4998 73.6651 29.4849 73.7952 29.4855C73.9879 29.4812 74.1795 29.5142 74.3592 29.5827C74.5198 29.6424 74.6644 29.7373 74.7821 29.8604C74.9033 29.9951 74.9928 30.1543 75.0444 30.3269C75.1073 30.5322 75.1377 30.7457 75.1346 30.9601V33.4593H74.3676V30.9601C74.3857 30.723 74.3166 30.4875 74.1731 30.2964C74.1022 30.2196 74.0147 30.1596 73.9171 30.1206C73.8195 30.0817 73.7142 30.0649 73.6091 30.0714C73.5023 30.0714 73.3963 30.0902 73.2961 30.127C73.1978 30.1651 73.1086 30.2228 73.0339 30.2964C72.9562 30.3757 72.8966 30.4703 72.8591 30.5741C72.8138 30.6978 72.7918 30.8286 72.7942 30.9601V33.4593H72.0273V30.9601C72.0471 30.7215 71.9812 30.4837 71.8412 30.2881C71.7737 30.2136 71.6899 30.1554 71.596 30.1178C71.5022 30.0803 71.4008 30.0644 71.2998 30.0714C71.1382 30.0702 70.9797 30.1145 70.843 30.1992C70.6931 30.2908 70.5613 30.4084 70.4539 30.5463V33.4566L69.6869 33.4677Z" fill="#212121"/>
<path d="M79.4315 32.9071C79.3383 33.0153 79.229 33.1089 79.1073 33.1848C78.984 33.2624 78.8526 33.3266 78.7153 33.3764C78.5757 33.4239 78.4323 33.4601 78.2867 33.4847C78.1421 33.5068 77.996 33.5179 77.8497 33.518C77.5894 33.5209 77.331 33.4747 77.0884 33.382C76.8579 33.2932 76.65 33.1558 76.4793 32.9793C76.3009 32.7912 76.1654 32.5678 76.0817 32.324C75.9812 32.0345 75.9325 31.7301 75.9379 31.4242C75.9351 31.1641 75.979 30.9056 76.0676 30.6606C76.1477 30.4328 76.2733 30.2232 76.437 30.0441C76.6015 29.8673 76.8024 29.7272 77.0263 29.6331C77.2742 29.5302 77.5412 29.4791 77.8102 29.4831C78.0393 29.4806 78.2669 29.5202 78.4813 29.5998C78.682 29.6742 78.8638 29.7907 79.0142 29.9413C79.1681 30.101 79.2871 30.29 79.3639 30.4967C79.4523 30.7359 79.4954 30.9892 79.4907 31.2437C79.4991 31.3236 79.4854 31.4041 79.4513 31.477C79.4352 31.499 79.4133 31.5164 79.3879 31.5271C79.3626 31.5379 79.3348 31.5417 79.3075 31.5381H76.6964C76.7003 31.7455 76.7345 31.9512 76.7979 32.149C76.8502 32.309 76.9357 32.4565 77.0489 32.5822C77.1522 32.6973 77.2816 32.7868 77.4267 32.8432C77.5836 32.9006 77.75 32.9288 77.9173 32.9266C78.0661 32.9293 78.2145 32.9097 78.3572 32.8682C78.4675 32.8347 78.5749 32.793 78.6787 32.7433C78.7563 32.7061 78.8317 32.6644 78.9042 32.6183C78.9521 32.584 79.0088 32.5638 79.0678 32.56C79.0961 32.5588 79.1244 32.5644 79.15 32.5766C79.1755 32.5887 79.1977 32.6068 79.2144 32.6294L79.4315 32.9071ZM78.8027 31.0715C78.8039 30.9311 78.782 30.7914 78.7379 30.6578C78.6968 30.5371 78.6316 30.4257 78.5461 30.3301C78.4614 30.2374 78.3576 30.1636 78.2416 30.1135C78.1101 30.0606 77.9692 30.0342 77.8271 30.0357C77.6881 30.0285 77.5491 30.0494 77.4186 30.0972C77.2882 30.1449 77.169 30.2185 77.0686 30.3134C76.8708 30.5229 76.7471 30.7899 76.7161 31.0743L78.8027 31.0715Z" fill="#212121"/>
<path d="M84.6395 30.2217C84.6239 30.2504 84.6017 30.2751 84.5746 30.2939C84.5468 30.3081 84.5157 30.3148 84.4844 30.3133C84.4346 30.3114 84.3861 30.297 84.3434 30.2717L84.1601 30.18C84.0777 30.1432 83.9929 30.1117 83.9064 30.0856C83.7943 30.0558 83.6785 30.0418 83.5624 30.044C83.4612 30.0428 83.3604 30.0568 83.2635 30.0856C83.1802 30.1084 83.1018 30.1461 83.0323 30.1967C82.9718 30.2416 82.9226 30.2996 82.8884 30.3661C82.8548 30.4315 82.8374 30.5038 82.8377 30.5771C82.8342 30.6658 82.8655 30.7523 82.9251 30.8187C82.9903 30.8887 83.0689 30.9453 83.1563 30.9854C83.2614 31.0365 83.3708 31.0783 83.4834 31.1103L83.8556 31.2297C83.9797 31.2686 84.1038 31.3158 84.2278 31.3686C84.3446 31.4194 84.4537 31.4857 84.5521 31.5657C84.646 31.6434 84.7244 31.7376 84.7833 31.8434C84.8453 31.9696 84.8753 32.1088 84.8707 32.2489C84.8721 32.423 84.8385 32.5957 84.772 32.7571C84.705 32.9113 84.6038 33.0489 84.476 33.1597C84.3377 33.2843 84.1744 33.3789 83.9966 33.4374C83.5352 33.5785 83.0394 33.5648 82.5867 33.3985C82.3724 33.3213 82.1744 33.2055 82.0031 33.057L82.1807 32.7793C82.2001 32.7459 82.2272 32.7174 82.2596 32.696C82.2989 32.6765 82.3426 32.6669 82.3865 32.6682C82.4414 32.6708 82.4943 32.6891 82.5388 32.721C82.5896 32.7571 82.6544 32.7987 82.7277 32.8404C82.8122 32.8872 82.901 32.9262 82.9928 32.957C83.12 32.9935 83.2522 33.0104 83.3847 33.007C83.5003 33.0101 83.6156 32.9941 83.7259 32.9598C83.8138 32.9323 83.8953 32.888 83.9656 32.8293C84.0279 32.7772 84.0771 32.7116 84.1094 32.6376C84.1409 32.5657 84.1572 32.4883 84.1573 32.4099C84.1601 32.3172 84.1291 32.2266 84.0699 32.1545C84.0047 32.0816 83.9263 32.0213 83.8387 31.9767C83.7335 31.9251 83.6241 31.8824 83.5116 31.849C83.3875 31.8157 83.2635 31.7768 83.1338 31.7351C83.0061 31.694 82.8809 31.6458 82.7587 31.5907C82.64 31.5397 82.5297 31.4714 82.4316 31.388C82.3265 31.2967 82.2431 31.1837 82.1875 31.0569C82.132 30.9302 82.1056 30.7929 82.1102 30.6549C82.1108 30.5046 82.1434 30.356 82.2061 30.2189C82.2731 30.0787 82.3691 29.9538 82.488 29.8524C82.62 29.7396 82.7733 29.6537 82.9392 29.5996C83.136 29.5334 83.3431 29.5014 83.5511 29.5052C83.7955 29.5006 84.0387 29.5421 84.2673 29.6274C84.4706 29.7036 84.6565 29.8187 84.8143 29.9662L84.6395 30.2217Z" fill="#212121"/>
<path d="M86.4612 30.0439C86.6262 29.8803 86.8166 29.7434 87.0251 29.6384C87.2423 29.5328 87.4822 29.4804 87.7244 29.4857C87.9223 29.4822 88.119 29.518 88.3024 29.5912C88.4635 29.6603 88.6062 29.7648 88.7198 29.8967C88.8365 30.033 88.9229 30.192 88.9735 30.3632C89.0343 30.5603 89.0638 30.7654 89.061 30.9714V33.4706H88.2855V30.9714C88.2993 30.7369 88.2294 30.5052 88.0881 30.316C88.0128 30.2346 87.9194 30.1712 87.8153 30.1308C87.7112 30.0903 87.5991 30.0739 87.4875 30.0827C87.2955 30.0813 87.1062 30.1281 86.9377 30.2188C86.7597 30.317 86.5988 30.4426 86.4612 30.5909V33.4679H85.697V27.7695H86.4612V30.0439Z" fill="#212121"/>
<path d="M89.98 30.094C90.1882 29.8924 90.435 29.7336 90.7061 29.6268C90.9771 29.52 91.2671 29.4674 91.559 29.472C91.7657 29.4689 91.9709 29.5066 92.1624 29.583C92.3314 29.6509 92.4826 29.7553 92.6051 29.8885C92.7316 30.0247 92.8277 30.1855 92.8871 30.3606C92.9512 30.5561 92.9826 30.7605 92.9801 30.966V33.4652H92.639C92.579 33.4689 92.5192 33.4554 92.4669 33.4264C92.4204 33.3929 92.3866 33.345 92.3711 33.2903L92.2893 32.9459C92.1938 33.0341 92.0931 33.1167 91.9876 33.1931C91.8898 33.2622 91.786 33.3226 91.6774 33.3736C91.5666 33.4243 91.4502 33.4625 91.3306 33.4874C91.196 33.514 91.059 33.527 90.9218 33.5263C90.7727 33.5272 90.6244 33.5056 90.4819 33.4625C90.3494 33.4225 90.2266 33.3563 90.121 33.2681C90.0181 33.1771 89.9363 33.0653 89.8813 32.9404C89.82 32.7944 89.7902 32.6374 89.7939 32.4794C89.7947 32.3227 89.8386 32.1692 89.9208 32.0351C90.0228 31.8741 90.1657 31.742 90.3353 31.6519C90.5704 31.5221 90.8243 31.4284 91.0881 31.3742C91.4638 31.297 91.8463 31.2561 92.2301 31.252V30.9743C92.2477 30.7377 92.1798 30.5026 92.0384 30.3106C91.9671 30.2347 91.8794 30.1756 91.7818 30.1376C91.6842 30.0996 91.5791 30.0838 91.4744 30.0912C91.3318 30.0871 91.1896 30.1078 91.0543 30.1523C90.9508 30.188 90.8515 30.2345 90.7582 30.2912L90.5439 30.4272C90.488 30.4668 90.421 30.4882 90.3522 30.4883C90.3045 30.4896 90.2578 30.4749 90.2196 30.4467C90.1816 30.4204 90.1498 30.3863 90.1266 30.3467L89.98 30.094ZM92.2216 31.7269C91.9561 31.7328 91.6914 31.7569 91.4293 31.7991C91.2479 31.826 91.0708 31.8754 90.902 31.9462C90.7905 31.9944 90.6934 32.0699 90.62 32.1656C90.5597 32.2458 90.528 32.3435 90.5298 32.4433C90.5263 32.53 90.5427 32.6164 90.5778 32.696C90.6073 32.7638 90.6527 32.8238 90.7103 32.871C90.7686 32.9164 90.8358 32.9494 90.9077 32.9682C90.9884 32.9901 91.072 33.0004 91.1558 32.9987C91.2648 32.9996 91.3736 32.9885 91.4801 32.9654C91.5774 32.9434 91.672 32.9108 91.762 32.8682C91.849 32.8236 91.9311 32.7706 92.0073 32.7099C92.0899 32.6456 92.1672 32.575 92.2386 32.4988L92.2216 31.7269Z" fill="#212121"/>
<path d="M94.7227 30.1328C94.8044 30.0334 94.894 29.9405 94.9906 29.8551C95.0852 29.7751 95.1882 29.7053 95.2979 29.6468C95.4089 29.5893 95.5262 29.5446 95.6476 29.5135C95.7772 29.4795 95.911 29.4627 96.0452 29.4635C96.2587 29.4603 96.4701 29.5059 96.6627 29.5968C96.8505 29.685 97.0132 29.8176 97.1364 29.9828C97.2762 30.1715 97.3785 30.3844 97.4381 30.6104C97.5155 30.8909 97.5525 31.1807 97.5481 31.4713C97.5512 31.7453 97.5103 32.018 97.4268 32.2794C97.3555 32.5143 97.2398 32.7339 97.0856 32.9264C96.9405 33.1072 96.7566 33.2542 96.5471 33.3568C96.3227 33.4623 96.0767 33.5155 95.828 33.5124C95.6287 33.5197 95.4301 33.4842 95.2461 33.4085C95.0621 33.3327 94.8969 33.2184 94.7622 33.0736V34.7759H93.998V29.5469H94.4605C94.5069 29.5426 94.5531 29.5557 94.5902 29.5835C94.6273 29.6112 94.6524 29.6517 94.6607 29.6968L94.7227 30.1328ZM94.7622 32.5015C94.8658 32.6466 95.0043 32.7639 95.1654 32.8431C95.3195 32.9079 95.4857 32.9401 95.6532 32.9375C95.8096 32.9458 95.9656 32.9161 96.1077 32.8513C96.2497 32.7864 96.3735 32.6883 96.4681 32.5654C96.6789 32.2431 96.7779 31.8621 96.7501 31.4796C96.7534 31.265 96.7316 31.0507 96.6852 30.8409C96.6521 30.6856 96.5879 30.5383 96.4963 30.4077C96.4196 30.3006 96.3155 30.2153 96.1946 30.1606C96.0654 30.1066 95.9261 30.0801 95.7857 30.0828C95.583 30.0783 95.3829 30.1292 95.2077 30.23C95.0316 30.3391 94.8785 30.4805 94.7565 30.6465L94.7622 32.5015Z" fill="#212121"/>
<path d="M101.673 32.9068C101.58 33.0143 101.47 33.1079 101.349 33.1845C101.226 33.2621 101.095 33.3263 100.957 33.3761C100.818 33.4236 100.674 33.4598 100.529 33.4844C100.384 33.5063 100.238 33.5175 100.092 33.5177C99.8304 33.5208 99.5711 33.4746 99.3275 33.3817C99.098 33.2926 98.8911 33.1551 98.7212 32.979C98.542 32.7911 98.4055 32.5676 98.3208 32.3236C98.2203 32.0342 98.1716 31.7298 98.177 31.4239C98.1756 31.1639 98.2195 30.9056 98.3068 30.6602C98.3926 30.433 98.5229 30.2245 98.6902 30.0465C98.8544 29.8694 99.0554 29.7292 99.2796 29.6356C99.5274 29.5324 99.7944 29.4813 100.063 29.4856C100.293 29.4833 100.52 29.5229 100.735 29.6022C100.934 29.6767 101.115 29.7933 101.265 29.9438C101.42 30.1025 101.54 30.2918 101.617 30.4992C101.706 30.7384 101.749 30.9916 101.744 31.2462C101.751 31.326 101.737 31.4061 101.705 31.4795C101.688 31.5015 101.667 31.5188 101.641 31.5296C101.616 31.5404 101.588 31.5441 101.561 31.5405H98.9496C98.9535 31.7479 98.9877 31.9537 99.0512 32.1515C99.1025 32.3112 99.187 32.4587 99.2993 32.5847C99.4037 32.6986 99.5328 32.7878 99.6771 32.8457C99.8341 32.9031 100 32.9313 100.168 32.929C100.317 32.9318 100.467 32.9121 100.61 32.8707C100.72 32.8378 100.827 32.796 100.929 32.7457C101.007 32.7079 101.084 32.6662 101.157 32.6208C101.205 32.5865 101.262 32.5663 101.321 32.5625C101.349 32.5609 101.377 32.5665 101.402 32.5787C101.427 32.5908 101.449 32.6091 101.465 32.6319L101.673 32.9068ZM101.042 31.0712C101.044 30.9307 101.022 30.7907 100.977 30.6575C100.941 30.5352 100.878 30.4221 100.792 30.3262C100.707 30.2303 100.602 30.1538 100.484 30.1021C100.351 30.0489 100.209 30.0225 100.066 30.0243C99.9273 30.0172 99.7883 30.0382 99.6579 30.086C99.5274 30.1337 99.4083 30.2073 99.3078 30.302C99.1118 30.5124 98.9893 30.779 98.9581 31.0629L101.042 31.0712Z" fill="#212121"/>
<path d="M103.275 30.2995C103.383 30.0673 103.541 29.8609 103.738 29.6941C103.921 29.5456 104.152 29.4667 104.389 29.4719C104.472 29.4718 104.554 29.4821 104.634 29.5025C104.706 29.5192 104.773 29.5484 104.834 29.5886L104.784 30.1439C104.78 30.1744 104.764 30.2021 104.74 30.2217C104.716 30.2412 104.685 30.2511 104.654 30.2495C104.599 30.2466 104.544 30.2392 104.49 30.2273C104.413 30.2136 104.335 30.207 104.256 30.2078C104.145 30.206 104.035 30.2229 103.929 30.2578C103.836 30.2928 103.751 30.3457 103.678 30.4133C103.599 30.4856 103.533 30.57 103.481 30.6632C103.417 30.7713 103.364 30.8847 103.32 31.002V33.4569H102.556V29.5469H102.993C103.054 29.5397 103.116 29.5556 103.165 29.5913C103.201 29.6361 103.224 29.69 103.23 29.7468L103.275 30.2995Z" fill="#212121"/>
<path d="M107.75 30.2217C107.734 30.2504 107.712 30.2751 107.685 30.2939C107.657 30.3081 107.626 30.3148 107.595 30.3133C107.545 30.3113 107.497 30.297 107.454 30.2717C107.403 30.2439 107.344 30.2133 107.271 30.18C107.188 30.1428 107.104 30.1112 107.017 30.0856C106.905 30.0558 106.789 30.0418 106.673 30.044C106.572 30.0428 106.471 30.0568 106.374 30.0856C106.291 30.1078 106.214 30.1455 106.146 30.1967C106.085 30.2402 106.035 30.2974 106 30.3635C105.966 30.4296 105.948 30.5029 105.948 30.5771C105.945 30.6657 105.976 30.7523 106.036 30.8187C106.101 30.8887 106.179 30.9453 106.267 30.9853C106.37 31.0327 106.476 31.0717 106.586 31.102L106.958 31.2214C107.084 31.2606 107.209 31.307 107.33 31.3602C107.447 31.411 107.556 31.4774 107.654 31.5574C107.748 31.6351 107.826 31.7292 107.885 31.8351C107.947 31.9613 107.977 32.1004 107.973 32.2405C107.974 32.4147 107.941 32.5874 107.874 32.7487C107.81 32.9012 107.714 33.0385 107.592 33.1514C107.452 33.2754 107.288 33.3699 107.11 33.4291C106.649 33.5701 106.153 33.5565 105.7 33.3902C105.486 33.313 105.288 33.1971 105.116 33.0486L105.297 32.7709C105.315 32.7371 105.341 32.7084 105.373 32.6876C105.412 32.6681 105.456 32.6586 105.5 32.6599C105.555 32.6625 105.608 32.6808 105.652 32.7126C105.706 32.7487 105.768 32.7904 105.841 32.832C105.926 32.8789 106.014 32.9179 106.106 32.9487C106.233 32.9849 106.366 33.0018 106.498 32.9986C106.614 33.002 106.729 32.986 106.839 32.9514C106.928 32.9233 107.01 32.8791 107.082 32.8209C107.142 32.7678 107.19 32.7024 107.223 32.6293C107.254 32.5574 107.271 32.4799 107.271 32.4016C107.275 32.3087 107.244 32.2177 107.183 32.1461C107.119 32.0726 107.04 32.0123 106.952 31.9684C106.847 31.9168 106.738 31.8741 106.625 31.8407C106.501 31.8073 106.377 31.7684 106.247 31.7268C106.119 31.6857 105.994 31.6375 105.872 31.5824C105.753 31.5314 105.643 31.4631 105.545 31.3797C105.44 31.2888 105.356 31.1757 105.301 31.0488C105.246 30.9219 105.22 30.7844 105.226 30.6466C105.226 30.4961 105.258 30.3472 105.322 30.2106C105.388 30.0695 105.484 29.9443 105.604 29.844C105.737 29.7318 105.89 29.646 106.055 29.5913C106.253 29.525 106.461 29.4931 106.67 29.4969C106.914 29.4926 107.156 29.534 107.384 29.6191C107.587 29.6953 107.773 29.8104 107.931 29.9579L107.75 30.2217Z" fill="#212121"/>
<path d="M113.11 31.9351L112.343 30.9409L111.599 31.9351L110.894 31.4491L111.647 30.3994L110.502 30.044L110.762 29.2636L111.889 29.6191V28.3306H112.814V29.6191L113.942 29.2636L114.224 30.044L113.063 30.3994L113.815 31.4491L113.11 31.9351Z" fill="#212121"/>
</svg>
